<mxfile host="app.diagrams.net" modified="2024-04-12T15:42:14.007Z" agent="Mozilla/5.0 (Windows NT 10.0; Win64; x64) AppleWebKit/537.36 (KHTML, like Gecko) Chrome/123.0.0.0 Safari/537.36" etag="osT9p0UIinDdZZwCPAsP" version="24.2.3" type="device">
  <diagram name="Pagina-1" id="eBICMSY-TpV2RwKMB9aS">
    <mxGraphModel dx="1808" dy="1152" grid="1" gridSize="10" guides="1" tooltips="1" connect="1" arrows="1" fold="1" page="1" pageScale="1" pageWidth="1500" pageHeight="500" math="1" shadow="0">
      <root>
        <mxCell id="0" />
        <mxCell id="1" parent="0" />
        <mxCell id="F_Y5JTIJZfHsVujfVQUr-14" style="edgeStyle=orthogonalEdgeStyle;rounded=0;orthogonalLoop=1;jettySize=auto;html=1;exitX=0.5;exitY=0;exitDx=0;exitDy=0;entryX=0.5;entryY=1;entryDx=0;entryDy=0;strokeWidth=2;" parent="1" source="F_Y5JTIJZfHsVujfVQUr-1" target="F_Y5JTIJZfHsVujfVQUr-4" edge="1">
          <mxGeometry relative="1" as="geometry" />
        </mxCell>
        <mxCell id="F_Y5JTIJZfHsVujfVQUr-1" value="MHA" style="rounded=1;whiteSpace=wrap;html=1;fontSize=18;fillColor=#f8cecc;strokeColor=default;strokeWidth=2;" parent="1" vertex="1">
          <mxGeometry x="440" y="330" width="180" height="60" as="geometry" />
        </mxCell>
        <mxCell id="F_Y5JTIJZfHsVujfVQUr-11" style="edgeStyle=orthogonalEdgeStyle;rounded=0;orthogonalLoop=1;jettySize=auto;html=1;exitX=1;exitY=0.5;exitDx=0;exitDy=0;entryX=0;entryY=0.5;entryDx=0;entryDy=0;strokeWidth=2;" parent="1" source="F_Y5JTIJZfHsVujfVQUr-2" target="F_Y5JTIJZfHsVujfVQUr-9" edge="1">
          <mxGeometry relative="1" as="geometry">
            <Array as="points">
              <mxPoint x="420" y="220" />
              <mxPoint x="420" y="70" />
            </Array>
          </mxGeometry>
        </mxCell>
        <mxCell id="F_Y5JTIJZfHsVujfVQUr-2" value="LN" style="rounded=1;whiteSpace=wrap;html=1;fontSize=18;fillColor=#dae8fc;strokeColor=default;strokeWidth=2;" parent="1" vertex="1">
          <mxGeometry x="440" y="190" width="180" height="60" as="geometry" />
        </mxCell>
        <mxCell id="F_Y5JTIJZfHsVujfVQUr-6" style="edgeStyle=orthogonalEdgeStyle;rounded=0;orthogonalLoop=1;jettySize=auto;html=1;exitX=1;exitY=0.5;exitDx=0;exitDy=0;entryX=1;entryY=0.5;entryDx=0;entryDy=0;strokeWidth=2;" parent="1" source="F_Y5JTIJZfHsVujfVQUr-3" target="F_Y5JTIJZfHsVujfVQUr-4" edge="1">
          <mxGeometry relative="1" as="geometry" />
        </mxCell>
        <mxCell id="F_Y5JTIJZfHsVujfVQUr-13" style="edgeStyle=orthogonalEdgeStyle;rounded=0;orthogonalLoop=1;jettySize=auto;html=1;exitX=0.5;exitY=0;exitDx=0;exitDy=0;entryX=0.5;entryY=1;entryDx=0;entryDy=0;strokeWidth=2;" parent="1" source="F_Y5JTIJZfHsVujfVQUr-3" target="F_Y5JTIJZfHsVujfVQUr-1" edge="1">
          <mxGeometry relative="1" as="geometry" />
        </mxCell>
        <mxCell id="F_Y5JTIJZfHsVujfVQUr-3" value="Inputs" style="rounded=1;whiteSpace=wrap;html=1;fontSize=18;strokeWidth=2;" parent="1" vertex="1">
          <mxGeometry x="440" y="420" width="180" height="40" as="geometry" />
        </mxCell>
        <mxCell id="F_Y5JTIJZfHsVujfVQUr-15" style="edgeStyle=orthogonalEdgeStyle;rounded=0;orthogonalLoop=1;jettySize=auto;html=1;exitX=0.5;exitY=0;exitDx=0;exitDy=0;entryX=0.5;entryY=1;entryDx=0;entryDy=0;strokeWidth=2;" parent="1" source="F_Y5JTIJZfHsVujfVQUr-4" target="F_Y5JTIJZfHsVujfVQUr-2" edge="1">
          <mxGeometry relative="1" as="geometry" />
        </mxCell>
        <mxCell id="F_Y5JTIJZfHsVujfVQUr-4" value="&lt;svg style=&quot;vertical-align: -0.186ex; font-size: 21px;&quot; xmlns:xlink=&quot;http://www.w3.org/1999/xlink&quot; viewBox=&quot;0 -583 778 665&quot; role=&quot;img&quot; height=&quot;1.505ex&quot; width=&quot;1.76ex&quot; xmlns=&quot;http://www.w3.org/2000/svg&quot;&gt;&lt;defs style=&quot;font-size: 21px;&quot;&gt;&lt;path d=&quot;M56 237T56 250T70 270H369V420L370 570Q380 583 389 583Q402 583 409 568V270H707Q722 262 722 250T707 230H409V-68Q401 -82 391 -82H389H387Q375 -82 369 -68V230H70Q56 237 56 250Z&quot; id=&quot;MJX-2-TEX-N-2B&quot; style=&quot;font-size: 21px;&quot;&gt;&lt;/path&gt;&lt;/defs&gt;&lt;g transform=&quot;scale(1,-1)&quot; stroke-width=&quot;0&quot; fill=&quot;currentColor&quot; stroke=&quot;currentColor&quot; style=&quot;font-size: 21px;&quot;&gt;&lt;g data-mml-node=&quot;math&quot; style=&quot;font-size: 21px;&quot;&gt;&lt;g data-mml-node=&quot;mo&quot; style=&quot;font-size: 21px;&quot;&gt;&lt;use xlink:href=&quot;#MJX-2-TEX-N-2B&quot; data-c=&quot;2B&quot; style=&quot;font-size: 21px;&quot;&gt;&lt;/use&gt;&lt;/g&gt;&lt;/g&gt;&lt;/g&gt;&lt;/svg&gt;" style="ellipse;whiteSpace=wrap;html=1;aspect=fixed;fontSize=21;" parent="1" vertex="1">
          <mxGeometry x="510" y="270" width="40" height="40" as="geometry" />
        </mxCell>
        <mxCell id="F_Y5JTIJZfHsVujfVQUr-17" style="edgeStyle=orthogonalEdgeStyle;rounded=0;orthogonalLoop=1;jettySize=auto;html=1;exitX=0.5;exitY=0;exitDx=0;exitDy=0;entryX=0.5;entryY=1;entryDx=0;entryDy=0;strokeWidth=2;" parent="1" source="F_Y5JTIJZfHsVujfVQUr-7" target="F_Y5JTIJZfHsVujfVQUr-9" edge="1">
          <mxGeometry relative="1" as="geometry" />
        </mxCell>
        <mxCell id="F_Y5JTIJZfHsVujfVQUr-7" value="MLP" style="rounded=1;whiteSpace=wrap;html=1;fontSize=18;fillColor=#d5e8d4;strokeColor=default;strokeWidth=2;" parent="1" vertex="1">
          <mxGeometry x="440" y="120" width="180" height="60" as="geometry" />
        </mxCell>
        <mxCell id="F_Y5JTIJZfHsVujfVQUr-8" value="LN" style="rounded=1;whiteSpace=wrap;html=1;fontSize=18;fillColor=#dae8fc;strokeColor=default;strokeWidth=2;" parent="1" vertex="1">
          <mxGeometry x="440" y="-30" width="180" height="60" as="geometry" />
        </mxCell>
        <mxCell id="F_Y5JTIJZfHsVujfVQUr-18" style="edgeStyle=orthogonalEdgeStyle;rounded=0;orthogonalLoop=1;jettySize=auto;html=1;exitX=0.5;exitY=0;exitDx=0;exitDy=0;entryX=0.5;entryY=1;entryDx=0;entryDy=0;strokeWidth=2;" parent="1" source="F_Y5JTIJZfHsVujfVQUr-9" target="F_Y5JTIJZfHsVujfVQUr-8" edge="1">
          <mxGeometry relative="1" as="geometry" />
        </mxCell>
        <mxCell id="F_Y5JTIJZfHsVujfVQUr-9" value="&lt;svg style=&quot;vertical-align: -0.186ex; font-size: 21px;&quot; xmlns:xlink=&quot;http://www.w3.org/1999/xlink&quot; viewBox=&quot;0 -583 778 665&quot; role=&quot;img&quot; height=&quot;1.505ex&quot; width=&quot;1.76ex&quot; xmlns=&quot;http://www.w3.org/2000/svg&quot;&gt;&lt;defs style=&quot;font-size: 21px;&quot;&gt;&lt;path d=&quot;M56 237T56 250T70 270H369V420L370 570Q380 583 389 583Q402 583 409 568V270H707Q722 262 722 250T707 230H409V-68Q401 -82 391 -82H389H387Q375 -82 369 -68V230H70Q56 237 56 250Z&quot; id=&quot;MJX-2-TEX-N-2B&quot; style=&quot;font-size: 21px;&quot;&gt;&lt;/path&gt;&lt;/defs&gt;&lt;g transform=&quot;scale(1,-1)&quot; stroke-width=&quot;0&quot; fill=&quot;currentColor&quot; stroke=&quot;currentColor&quot; style=&quot;font-size: 21px;&quot;&gt;&lt;g data-mml-node=&quot;math&quot; style=&quot;font-size: 21px;&quot;&gt;&lt;g data-mml-node=&quot;mo&quot; style=&quot;font-size: 21px;&quot;&gt;&lt;use xlink:href=&quot;#MJX-2-TEX-N-2B&quot; data-c=&quot;2B&quot; style=&quot;font-size: 21px;&quot;&gt;&lt;/use&gt;&lt;/g&gt;&lt;/g&gt;&lt;/g&gt;&lt;/svg&gt;" style="ellipse;whiteSpace=wrap;html=1;aspect=fixed;fontSize=21;" parent="1" vertex="1">
          <mxGeometry x="510" y="50" width="40" height="40" as="geometry" />
        </mxCell>
        <mxCell id="F_Y5JTIJZfHsVujfVQUr-19" value="(a) Post-normalized block" style="text;html=1;strokeColor=none;fillColor=none;align=center;verticalAlign=middle;whiteSpace=wrap;rounded=0;fontSize=18;" parent="1" vertex="1">
          <mxGeometry x="405" y="480" width="250" height="30" as="geometry" />
        </mxCell>
        <mxCell id="F_Y5JTIJZfHsVujfVQUr-20" style="edgeStyle=orthogonalEdgeStyle;rounded=0;orthogonalLoop=1;jettySize=auto;html=1;exitX=0.5;exitY=0;exitDx=0;exitDy=0;entryX=0.5;entryY=1;entryDx=0;entryDy=0;strokeWidth=2;" parent="1" source="F_Y5JTIJZfHsVujfVQUr-21" target="F_Y5JTIJZfHsVujfVQUr-29" edge="1">
          <mxGeometry relative="1" as="geometry" />
        </mxCell>
        <mxCell id="F_Y5JTIJZfHsVujfVQUr-21" value="MHA" style="rounded=1;whiteSpace=wrap;html=1;fontSize=18;fillColor=#f8cecc;strokeColor=default;strokeWidth=2;" parent="1" vertex="1">
          <mxGeometry x="705" y="240" width="180" height="60" as="geometry" />
        </mxCell>
        <mxCell id="F_Y5JTIJZfHsVujfVQUr-24" value="LN" style="rounded=1;whiteSpace=wrap;html=1;fontSize=18;fillColor=#dae8fc;strokeColor=default;strokeWidth=2;" parent="1" vertex="1">
          <mxGeometry x="705" y="310" width="180" height="60" as="geometry" />
        </mxCell>
        <mxCell id="F_Y5JTIJZfHsVujfVQUr-25" style="edgeStyle=orthogonalEdgeStyle;rounded=0;orthogonalLoop=1;jettySize=auto;html=1;exitX=1;exitY=0.5;exitDx=0;exitDy=0;entryX=1;entryY=0.5;entryDx=0;entryDy=0;strokeWidth=2;" parent="1" source="F_Y5JTIJZfHsVujfVQUr-27" target="F_Y5JTIJZfHsVujfVQUr-29" edge="1">
          <mxGeometry relative="1" as="geometry" />
        </mxCell>
        <mxCell id="F_Y5JTIJZfHsVujfVQUr-37" style="edgeStyle=orthogonalEdgeStyle;rounded=0;orthogonalLoop=1;jettySize=auto;html=1;exitX=0.5;exitY=0;exitDx=0;exitDy=0;entryX=0.5;entryY=1;entryDx=0;entryDy=0;strokeWidth=2;" parent="1" source="F_Y5JTIJZfHsVujfVQUr-27" target="F_Y5JTIJZfHsVujfVQUr-24" edge="1">
          <mxGeometry relative="1" as="geometry" />
        </mxCell>
        <mxCell id="F_Y5JTIJZfHsVujfVQUr-27" value="Inputs" style="rounded=1;whiteSpace=wrap;html=1;fontSize=18;strokeWidth=2;" parent="1" vertex="1">
          <mxGeometry x="705" y="420" width="180" height="40" as="geometry" />
        </mxCell>
        <mxCell id="F_Y5JTIJZfHsVujfVQUr-36" style="edgeStyle=orthogonalEdgeStyle;rounded=0;orthogonalLoop=1;jettySize=auto;html=1;exitX=0.5;exitY=0;exitDx=0;exitDy=0;entryX=0.5;entryY=1;entryDx=0;entryDy=0;strokeWidth=2;" parent="1" source="F_Y5JTIJZfHsVujfVQUr-29" target="F_Y5JTIJZfHsVujfVQUr-32" edge="1">
          <mxGeometry relative="1" as="geometry" />
        </mxCell>
        <mxCell id="F_Y5JTIJZfHsVujfVQUr-38" style="edgeStyle=orthogonalEdgeStyle;rounded=0;orthogonalLoop=1;jettySize=auto;html=1;exitX=0;exitY=0.5;exitDx=0;exitDy=0;entryX=0;entryY=0.5;entryDx=0;entryDy=0;strokeWidth=2;" parent="1" source="F_Y5JTIJZfHsVujfVQUr-29" target="F_Y5JTIJZfHsVujfVQUr-34" edge="1">
          <mxGeometry relative="1" as="geometry">
            <Array as="points">
              <mxPoint x="680" y="200" />
              <mxPoint x="680" y="-20" />
            </Array>
          </mxGeometry>
        </mxCell>
        <mxCell id="F_Y5JTIJZfHsVujfVQUr-29" value="&lt;svg style=&quot;vertical-align: -0.186ex; font-size: 21px;&quot; xmlns:xlink=&quot;http://www.w3.org/1999/xlink&quot; viewBox=&quot;0 -583 778 665&quot; role=&quot;img&quot; height=&quot;1.505ex&quot; width=&quot;1.76ex&quot; xmlns=&quot;http://www.w3.org/2000/svg&quot;&gt;&lt;defs style=&quot;font-size: 21px;&quot;&gt;&lt;path d=&quot;M56 237T56 250T70 270H369V420L370 570Q380 583 389 583Q402 583 409 568V270H707Q722 262 722 250T707 230H409V-68Q401 -82 391 -82H389H387Q375 -82 369 -68V230H70Q56 237 56 250Z&quot; id=&quot;MJX-2-TEX-N-2B&quot; style=&quot;font-size: 21px;&quot;&gt;&lt;/path&gt;&lt;/defs&gt;&lt;g transform=&quot;scale(1,-1)&quot; stroke-width=&quot;0&quot; fill=&quot;currentColor&quot; stroke=&quot;currentColor&quot; style=&quot;font-size: 21px;&quot;&gt;&lt;g data-mml-node=&quot;math&quot; style=&quot;font-size: 21px;&quot;&gt;&lt;g data-mml-node=&quot;mo&quot; style=&quot;font-size: 21px;&quot;&gt;&lt;use xlink:href=&quot;#MJX-2-TEX-N-2B&quot; data-c=&quot;2B&quot; style=&quot;font-size: 21px;&quot;&gt;&lt;/use&gt;&lt;/g&gt;&lt;/g&gt;&lt;/g&gt;&lt;/svg&gt;" style="ellipse;whiteSpace=wrap;html=1;aspect=fixed;fontSize=21;" parent="1" vertex="1">
          <mxGeometry x="775" y="180" width="40" height="40" as="geometry" />
        </mxCell>
        <mxCell id="F_Y5JTIJZfHsVujfVQUr-30" style="edgeStyle=orthogonalEdgeStyle;rounded=0;orthogonalLoop=1;jettySize=auto;html=1;exitX=0.5;exitY=0;exitDx=0;exitDy=0;entryX=0.5;entryY=1;entryDx=0;entryDy=0;strokeWidth=2;" parent="1" source="F_Y5JTIJZfHsVujfVQUr-31" target="F_Y5JTIJZfHsVujfVQUr-34" edge="1">
          <mxGeometry relative="1" as="geometry" />
        </mxCell>
        <mxCell id="F_Y5JTIJZfHsVujfVQUr-31" value="MLP" style="rounded=1;whiteSpace=wrap;html=1;fontSize=18;fillColor=#d5e8d4;strokeColor=default;strokeWidth=2;" parent="1" vertex="1">
          <mxGeometry x="705" y="30" width="180" height="60" as="geometry" />
        </mxCell>
        <mxCell id="F_Y5JTIJZfHsVujfVQUr-32" value="LN" style="rounded=1;whiteSpace=wrap;html=1;fontSize=18;fillColor=#dae8fc;strokeColor=default;strokeWidth=2;" parent="1" vertex="1">
          <mxGeometry x="705" y="100" width="180" height="60" as="geometry" />
        </mxCell>
        <mxCell id="F_Y5JTIJZfHsVujfVQUr-34" value="&lt;svg style=&quot;vertical-align: -0.186ex; font-size: 21px;&quot; xmlns:xlink=&quot;http://www.w3.org/1999/xlink&quot; viewBox=&quot;0 -583 778 665&quot; role=&quot;img&quot; height=&quot;1.505ex&quot; width=&quot;1.76ex&quot; xmlns=&quot;http://www.w3.org/2000/svg&quot;&gt;&lt;defs style=&quot;font-size: 21px;&quot;&gt;&lt;path d=&quot;M56 237T56 250T70 270H369V420L370 570Q380 583 389 583Q402 583 409 568V270H707Q722 262 722 250T707 230H409V-68Q401 -82 391 -82H389H387Q375 -82 369 -68V230H70Q56 237 56 250Z&quot; id=&quot;MJX-2-TEX-N-2B&quot; style=&quot;font-size: 21px;&quot;&gt;&lt;/path&gt;&lt;/defs&gt;&lt;g transform=&quot;scale(1,-1)&quot; stroke-width=&quot;0&quot; fill=&quot;currentColor&quot; stroke=&quot;currentColor&quot; style=&quot;font-size: 21px;&quot;&gt;&lt;g data-mml-node=&quot;math&quot; style=&quot;font-size: 21px;&quot;&gt;&lt;g data-mml-node=&quot;mo&quot; style=&quot;font-size: 21px;&quot;&gt;&lt;use xlink:href=&quot;#MJX-2-TEX-N-2B&quot; data-c=&quot;2B&quot; style=&quot;font-size: 21px;&quot;&gt;&lt;/use&gt;&lt;/g&gt;&lt;/g&gt;&lt;/g&gt;&lt;/svg&gt;" style="ellipse;whiteSpace=wrap;html=1;aspect=fixed;fontSize=21;" parent="1" vertex="1">
          <mxGeometry x="775" y="-40" width="40" height="40" as="geometry" />
        </mxCell>
        <mxCell id="F_Y5JTIJZfHsVujfVQUr-35" value="(b) Pre-normalized block" style="text;html=1;strokeColor=none;fillColor=none;align=center;verticalAlign=middle;whiteSpace=wrap;rounded=0;fontSize=18;" parent="1" vertex="1">
          <mxGeometry x="670" y="480" width="250" height="30" as="geometry" />
        </mxCell>
      </root>
    </mxGraphModel>
  </diagram>
</mxfile>
